<svg id="logo" xmlns="http://www.w3.org/2000/svg"
 width="70px" height="72px">
 
<path fill-rule="evenodd"  stroke="rgb(255, 255, 255)" stroke-width="2px" stroke-linecap="butt" stroke-linejoin="miter" fill="none"
 d="M63.675,68.857 L34.860,13.860 L6.046,68.857 L63.675,68.857 Z"/>
<path fill-rule="evenodd"  stroke="rgb(246, 247, 252)" stroke-width="2px" stroke-linecap="butt" stroke-linejoin="miter" fill="none"
 d="M34.500,1.000 C53.002,1.000 68.000,15.873 68.000,34.219 C68.000,52.565 53.002,67.437 34.500,67.437 C15.998,67.437 1.000,52.565 1.000,34.219 C1.000,15.873 15.998,1.000 34.500,1.000 Z"/>
<path fill-rule="evenodd"  fill="rgb(255, 255, 255)"
 d="M34.859,63.844 C36.853,63.844 38.469,65.446 38.469,67.422 C38.469,69.398 36.853,71.000 34.859,71.000 C32.866,71.000 31.250,69.398 31.250,67.422 C31.250,65.446 32.866,63.844 34.859,63.844 Z"/>
<path fill-rule="evenodd"  fill="rgb(255, 255, 255)"
 d="M61.516,63.844 C63.509,63.844 65.125,65.446 65.125,67.422 C65.125,69.398 63.509,71.000 61.516,71.000 C59.522,71.000 57.906,69.398 57.906,67.422 C57.906,65.446 59.522,63.844 61.516,63.844 Z"/>
<path fill-rule="evenodd"  fill="rgb(255, 255, 255)"
 d="M6.047,63.844 C8.040,63.844 9.656,65.446 9.656,67.422 C9.656,69.398 8.040,71.000 6.047,71.000 C4.053,71.000 2.437,69.398 2.437,67.422 C2.437,65.446 4.053,63.844 6.047,63.844 Z"/>
</svg>