<svg xmlns="http://www.w3.org/2000/svg" width="23" height="37" viewBox="0 0 23 37">
  <defs>
    <style>
      .cls-1 {
        fill: #fff;
        fill-rule: evenodd;
      }
    </style>
  </defs>
  <path id="scroll" class="cls-1" d="M11.5,9.757a1.659,1.659,0,1,0,1.657,1.659A1.66,1.66,0,0,0,11.5,9.757ZM10.543-.007A11.476,11.476,0,0,0,0,11.416V25.491a11.5,11.5,0,1,0,23,0V11.416A11.48,11.48,0,0,0,12.451-.007M11.5,35.091a9.607,9.607,0,0,1-9.591-9.6V11.416a9.591,9.591,0,1,1,19.182,0V25.49A9.607,9.607,0,0,1,11.5,35.091Z"/>
</svg>
