<svg id="sh2" xmlns="http://www.w3.org/2000/svg" width="80" height="84" viewBox="0 0 80 84">
  <defs>
    <style>
      .cls-1 {
        fill: #3c3c3c;
        fill-rule: evenodd;
      }
    </style>
  </defs>
  <path class="cls-1" d="M77.956-.011H66.032a2.017,2.017,0,0,0-2.025,2.025V6.177H15.86V2.014A2.016,2.016,0,0,0,13.836-.011H2.024A2.017,2.017,0,0,0,0,2.014V14.277A2.017,2.017,0,0,0,2.024,16.3H13.948a2.017,2.017,0,0,0,2.025-2.025V10.114H38.134c-0.225,4.951-12.262,28.239-19.911,41.965a2.083,2.083,0,0,0,.45,2.475c6.862,5.85,8.55,11.588,9,14.513H25.085a2.017,2.017,0,0,0-2.025,2.025v9.9a2.016,2.016,0,0,0,2.025,2.025H55.008a2.016,2.016,0,0,0,2.025-2.025v-9.9a2.017,2.017,0,0,0-2.025-2.025H52.42c0.45-2.925,2.137-8.663,9-14.513a2.054,2.054,0,0,0,.45-2.475C54.22,38.354,42.184,14.952,41.959,10.114H64.007v4.163A2.017,2.017,0,0,0,66.032,16.3H77.956a2.016,2.016,0,0,0,2.025-2.025V2.014A2.017,2.017,0,0,0,77.956-.011ZM11.923,12.252H3.936V3.926h7.987v8.326ZM40.046,45.216A2.588,2.588,0,1,1,37.459,47.8,2.7,2.7,0,0,1,40.046,45.216ZM53.1,78.855H27.11V72.893H53.1v5.963Zm-4.612-9.9H31.609c-0.45-3.263-2.137-9.788-9.224-16.426,2.7-4.95,10.8-19.8,15.636-30.827V41.616a6.451,6.451,0,0,0-4.5,6.188,6.525,6.525,0,1,0,8.549-6.188V21.59c4.949,11.026,12.937,25.876,15.636,30.939C50.621,59.167,48.933,65.692,48.483,68.955Zm27.56-56.7H68.057V4.039h7.987v8.213Z"/>
</svg>
