<svg id="sh4" xmlns="http://www.w3.org/2000/svg" width="78.97" height="91" viewBox="0 0 78.97 91">
  <defs>
    <style>
      .cls-1 {
        fill: #3c3c3c;
        fill-rule: evenodd;
      }
    </style>
  </defs>
  <path class="cls-1" d="M1963.76,4201.11a1.557,1.557,0,0,1-1.11-.45l-3.1-3.08a1.551,1.551,0,0,1,0-2.2,1.575,1.575,0,0,1,2.22,0l1.99,1.97,5.08-5.05a1.575,1.575,0,0,1,2.22,0,1.551,1.551,0,0,1,0,2.2l-6.19,6.16A1.591,1.591,0,0,1,1963.76,4201.11Zm32.55-3.07h-18.67a1.56,1.56,0,1,1,0-3.12h18.67A1.56,1.56,0,1,1,1996.31,4198.04Zm-32.55,29.75a1.557,1.557,0,0,1-1.11-.45l-3.1-3.08a1.551,1.551,0,0,1,0-2.2,1.575,1.575,0,0,1,2.22,0l1.99,1.97,5.08-5.05a1.575,1.575,0,0,1,2.22,0,1.551,1.551,0,0,1,0,2.2l-6.19,6.16A1.591,1.591,0,0,1,1963.76,4227.79Zm32.55-3.07h-18.67a1.56,1.56,0,1,1,0-3.12h18.67A1.56,1.56,0,1,1,1996.31,4224.72Zm-32.55,16.42a1.567,1.567,0,0,1-1.11-.46l-3.1-3.08a1.551,1.551,0,0,1,0-2.2,1.575,1.575,0,0,1,2.22,0l1.99,1.97,5.08-5.05a1.575,1.575,0,0,1,2.22,0,1.554,1.554,0,0,1,0,2.21l-6.19,6.15A1.6,1.6,0,0,1,1963.76,4241.14Zm32.55-3.08h-18.67a1.56,1.56,0,1,1,0-3.12h18.67A1.56,1.56,0,1,1,1996.31,4238.06Zm-32.55-23.61a1.557,1.557,0,0,1-1.11-.45l-3.1-3.08a1.563,1.563,0,0,1,0-2.21,1.594,1.594,0,0,1,2.22,0l1.99,1.98,5.08-5.05a1.575,1.575,0,0,1,2.22,0,1.542,1.542,0,0,1,0,2.2l-6.19,6.16A1.591,1.591,0,0,1,1963.76,4214.45Zm32.55-3.07h-18.67a1.56,1.56,0,1,1,0-3.12h18.67A1.56,1.56,0,1,1,1996.31,4211.38Zm22.58-36.98h-18.47a6.133,6.133,0,0,0-6.14-5.68h-5.98a5.816,5.816,0,0,0-11.63,0h-5.99a6.131,6.131,0,0,0-6.13,5.68h-20.47a2.087,2.087,0,0,0-2.09,2.08v75.44a2.081,2.081,0,0,0,2.09,2.08h74.81a2.081,2.081,0,0,0,2.09-2.08v-75.44A2.087,2.087,0,0,0,2018.89,4174.4Zm-50.18.44a1.965,1.965,0,0,1,1.97-1.96h6.54a3.628,3.628,0,0,0,3.64-3.61v-0.48a1.625,1.625,0,0,1,3.25,0v0.48a3.626,3.626,0,0,0,3.63,3.61h6.54a1.968,1.968,0,0,1,1.98,1.96v4.26h-27.55v-4.26h0Zm48.09,75h-70.63v-71.28h18.36v2.62a2.081,2.081,0,0,0,2.09,2.08h31.73a2.081,2.081,0,0,0,2.09-2.08v-2.62h16.35v71.28h0.01Zm-34.32-76.7a2,2,0,1,1-2.01,2A2,2,0,0,1,1982.48,4173.14Z" transform="translate(-1942 -4163)"/>
</svg>
